<svg width="120" height="40" viewBox="0 0 120 40" fill="none" xmlns="http://www.w3.org/2000/svg">
<g clip-path="url(#clip0_103_8934)">
<path d="M72.7113 19.4499H76.2381C76.1871 16.3481 73.6376 14.2066 69.7625 14.2066C65.9468 14.2066 63.151 16.3141 63.168 19.4754C63.1595 22.0419 64.9696 23.512 67.9099 24.2174L69.805 24.6933C71.7001 25.1522 72.7538 25.6961 72.7623 26.8688C72.7538 28.1435 71.5471 29.0103 69.6775 29.0103C67.7654 29.0103 66.3887 28.1265 66.2698 26.3844H62.7091C62.8025 30.1491 65.4964 32.0951 69.72 32.0951C73.9691 32.0951 76.4675 30.0641 76.476 26.8773C76.4675 23.9794 74.2835 22.4413 71.2582 21.7614L69.6945 21.3875C68.1818 21.0391 66.9156 20.4782 66.9411 19.229C66.9411 18.1072 67.9354 17.2829 69.737 17.2829C71.4961 17.2829 72.5754 18.0817 72.7113 19.4499ZM78.8831 36.7436H82.5033V29.7582H82.6138C83.1152 30.8459 84.2114 32.0611 86.319 32.0611C89.2933 32.0611 91.6133 29.7072 91.6133 25.3391C91.6133 20.8521 89.1913 18.6256 86.3275 18.6256C84.1434 18.6256 83.0982 19.9258 82.6138 20.9881H82.4523V18.7956H78.8831V36.7436ZM82.4268 25.3221C82.4268 22.9937 83.4126 21.5065 85.1717 21.5065C86.9648 21.5065 87.9166 23.0616 87.9166 25.3221C87.9166 27.5996 86.9478 29.1803 85.1717 29.1803C83.4296 29.1803 82.4268 27.6506 82.4268 25.3221ZM94.0268 31.8487H97.647V18.7956H94.0268V31.8487ZM95.8454 17.1129C96.9246 17.1129 97.8084 16.2886 97.8084 15.2774C97.8084 14.2746 96.9246 13.4503 95.8454 13.4503C94.7746 13.4503 93.8908 14.2746 93.8908 15.2774C93.8908 16.2886 94.7746 17.1129 95.8454 17.1129ZM104.167 24.3024C104.176 22.6197 105.178 21.634 106.64 21.634C108.093 21.634 108.969 22.5857 108.96 24.1834V31.8487H112.58V23.5375C112.58 20.4952 110.796 18.6256 108.076 18.6256C106.139 18.6256 104.737 19.5774 104.15 21.0986H103.997V18.7956H100.547V31.8487H104.167V24.3024Z" fill="#34233C"/>
<rect y="23.5849" width="15.6347" height="15.6347" transform="rotate(-45 0 23.5849)" fill="#3B82F6"/>
<rect x="12.5295" y="11.0554" width="15.6347" height="15.6347" transform="rotate(-45 12.5295 11.0554)" fill="#3B82F6"/>
<rect x="25.059" y="23.5849" width="15.6347" height="15.6347" transform="rotate(-45 25.059 23.5849)" fill="#3B82F6"/>
</g>
<defs>
<clipPath id="clip0_103_8934">
<rect width="120" height="40" fill="white"/>
</clipPath>
</defs>
</svg>
